<svg xmlns="http://www.w3.org/2000/svg" viewBox="0 0 32 32">
  <!-- Dark rounded background -->
  <rect width="32" height="32" rx="7" fill="#0f0f1a"/>

  <!-- Outer flame — red -->
  <path
    d="M16 3
       C 15 7 11 10 10 14.5
       C 10 19.8 12.7 24 16 24
       C 19.3 24 22 19.8 22 14.5
       C 22 12.8 21.4 11.3 20.6 10
       C 20 13 18.2 14.5 17 15
       C 18.5 11.5 19 7.5 16 3 Z"
    fill="#e74c3c"
  />

  <!-- Inner flame — lighter core -->
  <path
    d="M16 11
       C 15.4 13 15.6 15.5 16.8 17
       C 15.2 16.5 13.8 15 13.8 13.5
       C 13.8 12.6 14.6 11.8 16 11 Z"
    fill="#ff7b6b"
    opacity="0.85"
  />

  <!-- Small bright tip -->
  <ellipse cx="16" cy="19.5" rx="2.2" ry="3" fill="#ff9980" opacity="0.35"/>
</svg>
